# xmcd
#
# Track frame offsets:
#	150
#	18966
#	30919
#	46124
#	62759
#	82327
#	100944
#	121988
#	135643
#	150086
#	167664
#	184196
#	199821
#
# Disc length: 2901
#
# Revision: 1
# Processed by: cddbd v1.5.1PL0 Copyright (c) Steve Scherf et al.
# Submitted via: VisiTrax 2.9.5.180 - For more info visit www.synapsa.com
# Normalized: r0:DSETVAR1
#
DISCID=9d0b530d
DTITLE=Various Artist - CDX 226 November 1999
DYEAR=1999
DGENRE=
TTITLE0=Mark Wills - Back at one
TTITLE1=Brooks and Dunn - Beer thirty
TTITLE2=Wynonna - Can't nobody love you (like I do)
TTITLE3=Bellamy Brothers - Come back Gene and Roy
TTITLE4=Cledus T Judd - Coronary life
TTITLE5=Dixie Chicks - Cowboy take me away
TTITLE6=Trio - Feels like home
TTITLE7=Tracy Lawrence - Lessons learned
TTITLE8=Julie Reeves - What I need
TTITLE9=Joe Kidd Baker - Come on in
TTITLE10=Greg Windham - She knows what to do
TTITLE11=Greg Windham - Christmas in an airport
TTITLE12=Bryan White - God gave me you
EXTD=
EXTT0=
EXTT1=
EXTT2=
EXTT3=
EXTT4=
EXTT5=
EXTT6=
EXTT7=
EXTT8=
EXTT9=
EXTT10=
EXTT11=
EXTT12=
PLAYORDER=
